<?xml version="1.0" encoding="UTF-8"?>
<svg xmlns="http://www.w3.org/2000/svg" xmlns:xlink="http://www.w3.org/1999/xlink" width="30px" height="30px" viewBox="0 0 30 30" version="1.1">
<g id="surface1">
<path style=" stroke:none;fill-rule:nonzero;fill:rgb(0%,0%,0%);fill-opacity:1;" d="M 1.738281 1.738281 L 10.441406 1.738281 L 10.441406 12.179688 L 1.738281 12.179688 Z M 1.738281 1.738281 "/>
<path style=" stroke:none;fill-rule:nonzero;fill:rgb(0%,0%,0%);fill-opacity:1;" d="M 13.199219 1.738281 L 20.160156 1.738281 L 20.160156 12.179688 L 13.199219 12.179688 Z M 13.199219 1.738281 "/>
<path style=" stroke:none;fill-rule:nonzero;fill:rgb(0%,0%,0%);fill-opacity:1;" d="M 22.980469 1.738281 L 28.199219 1.738281 L 28.199219 12.179688 L 22.980469 12.179688 Z M 22.980469 1.738281 "/>
<path style=" stroke:none;fill-rule:nonzero;fill:rgb(0%,0%,0%);fill-opacity:1;" d="M 1.738281 14.941406 L 10.441406 14.941406 L 10.441406 21.898438 L 1.738281 21.898438 Z M 1.738281 14.941406 "/>
<path style=" stroke:none;fill-rule:nonzero;fill:rgb(0%,0%,0%);fill-opacity:1;" d="M 13.199219 14.941406 L 20.160156 14.941406 L 20.160156 21.898438 L 13.199219 21.898438 Z M 13.199219 14.941406 "/>
<path style=" stroke:none;fill-rule:nonzero;fill:rgb(0%,0%,0%);fill-opacity:1;" d="M 22.980469 14.941406 L 28.199219 14.941406 L 28.199219 21.898438 L 22.980469 21.898438 Z M 22.980469 14.941406 "/>
<path style=" stroke:none;fill-rule:nonzero;fill:rgb(0%,0%,0%);fill-opacity:1;" d="M 1.738281 24.71875 L 10.441406 24.71875 L 10.441406 28.199219 L 1.738281 28.199219 Z M 1.738281 24.71875 "/>
<path style=" stroke:none;fill-rule:nonzero;fill:rgb(0%,0%,0%);fill-opacity:1;" d="M 13.199219 24.71875 L 20.160156 24.71875 L 20.160156 28.199219 L 13.199219 28.199219 Z M 13.199219 24.71875 "/>
<path style=" stroke:none;fill-rule:nonzero;fill:rgb(0%,0%,0%);fill-opacity:1;" d="M 22.980469 24.71875 L 28.199219 24.71875 L 28.199219 28.199219 L 22.980469 28.199219 Z M 22.980469 24.71875 "/>
</g>
</svg>
